<svg width="71" height="70" viewBox="0 0 71 70" fill="none" xmlns="http://www.w3.org/2000/svg">
<rect x="0.800049" width="70" height="70" rx="10" fill="white"/>
<path fill-rule="evenodd" clip-rule="evenodd" d="M49.1372 40.9657C49.1861 41.0861 49.235 41.2064 49.2837 41.3234C49.6729 42.4349 49.7933 43.4848 49.5525 44.5348C49.2221 46.7564 47.7508 48.6785 45.6481 49.5198C44.8964 49.8502 44.0564 50 43.2151 50C42.9743 50 42.6747 49.9706 42.434 49.9398C41.4428 49.8194 40.4223 49.4904 39.4312 48.9193C38.23 48.2291 37.0289 47.238 35.7074 45.7961C34.3859 47.238 33.2156 48.2291 31.9837 48.9193C30.9925 49.4904 29.972 49.8194 28.9809 49.9398C28.7401 49.9706 28.4405 50 28.1997 50C27.3584 50 26.5478 49.8502 25.7667 49.5198C23.6948 48.6799 22.1927 46.7872 21.8623 44.5348C21.7125 43.454 21.8329 42.4027 22.2235 41.2912C22.3635 40.9272 22.5133 40.566 22.6743 40.2105C22.7815 39.9699 22.8886 39.7352 22.9931 39.5065C23.1233 39.2213 23.2493 38.9454 23.3658 38.679L23.3952 38.6188C25.4671 34.1139 27.7195 29.5488 30.0322 25.0439L30.1218 24.8647C30.3433 24.4499 30.5637 24.0102 30.7851 23.5686C30.8043 23.5302 30.8235 23.4919 30.8427 23.4536C31.1423 22.9132 31.4727 22.342 31.9235 21.8017C32.916 20.6608 34.2669 20 35.769 20C37.2403 20 38.622 20.6608 39.5837 21.8633C40.0229 22.3575 40.311 22.8774 40.5872 23.376C40.6131 23.4226 40.6388 23.469 40.6645 23.5152C40.6837 23.5535 40.7029 23.5917 40.722 23.63C40.9434 24.0717 41.1638 24.5114 41.3854 24.9263L41.475 25.1069C43.8171 29.6118 46.0401 34.1769 48.112 38.6818L48.1414 38.7112C48.255 38.9693 48.3768 39.2364 48.5025 39.5122C48.6106 39.7493 48.7216 39.9928 48.8329 40.2426C48.934 40.4656 49.0357 40.7159 49.1372 40.9657ZM47.7214 44.2968C47.5114 45.8591 46.4601 47.21 44.9888 47.8105C44.2678 48.1101 43.4867 48.2011 42.7055 48.1101C41.9552 48.0205 41.2034 47.7797 40.4237 47.3304C39.343 46.7284 38.2608 45.7989 36.9995 44.4172C38.9818 41.9841 40.1829 39.7625 40.6337 37.7802C40.8437 36.8493 40.8745 36.0079 40.7835 35.2268C40.6631 34.4764 40.3929 33.7849 39.9729 33.1843C39.042 31.8334 37.4797 31.0523 35.7382 31.0523C33.9967 31.0523 32.4344 31.8628 31.5035 33.1843C31.0835 33.7849 30.8133 34.4764 30.6929 35.2268C30.5726 36.0079 30.6033 36.8787 30.8427 37.7802C31.2935 39.7625 32.524 42.0149 34.4769 44.4466C33.245 45.8283 32.1348 46.7592 31.0527 47.3598C30.2716 47.8105 29.5212 48.0513 28.7709 48.1409C27.9967 48.2277 27.2142 48.1241 26.489 47.8413C25.0177 47.2408 23.9664 45.8885 23.7564 44.3276C23.6668 43.5772 23.727 42.8269 24.0266 41.9855C24.0884 41.7778 24.1796 41.5707 24.2795 41.344C24.3243 41.2423 24.3708 41.1366 24.4172 41.0252C24.6106 40.5829 24.8302 40.1144 25.0507 39.6439L25.0507 39.6439L25.1073 39.5231L25.1381 39.4629C27.21 34.9874 29.433 30.4223 31.7457 25.9776L31.8353 25.797C31.9581 25.5678 32.0806 25.3302 32.203 25.0926L32.2031 25.0924L32.2031 25.0923C32.3207 24.8642 32.4383 24.6361 32.5562 24.4153C32.797 23.9351 33.0672 23.4844 33.3976 23.0938C34.0289 22.3728 34.8689 21.9823 35.7998 21.9823C36.7307 21.9823 37.5721 22.3728 38.202 23.0938C38.5324 23.4844 38.8026 23.9351 39.0434 24.4153C39.1612 24.6359 39.2787 24.8635 39.3962 25.0911L39.3963 25.0914C39.5189 25.3288 39.6414 25.5662 39.7643 25.7956L39.8553 25.9762C42.1372 30.4503 44.3602 35.0154 46.4321 39.4909V39.5203C46.554 39.7633 46.6679 40.0221 46.7818 40.2807L46.7819 40.2808C46.893 40.5331 47.004 40.7853 47.1222 41.0224C47.1696 41.1366 47.2171 41.2446 47.2627 41.3484L47.2628 41.3485C47.3615 41.573 47.4516 41.7779 47.5128 41.9827C47.7522 42.7653 47.8418 43.5156 47.7214 44.2968ZM35.7382 42.8843C34.1171 40.8418 33.0658 38.9197 32.7046 37.2986C32.5548 36.6071 32.524 36.0065 32.615 35.4662C32.6752 34.986 32.8558 34.5646 33.0952 34.2049C33.6663 33.3943 34.6267 32.8833 35.7382 32.8833C36.8497 32.8833 37.8409 33.3649 38.3812 34.2049C38.622 34.566 38.8012 34.986 38.8614 35.4662C38.951 36.0065 38.9216 36.6379 38.7718 37.2986C38.412 38.8903 37.3607 40.8124 35.7382 42.8843Z" fill="#E0565B"/>
</svg>
