<svg width="29" height="28" viewBox="0 0 29 28" fill="none" xmlns="http://www.w3.org/2000/svg">
<g clip-path="url(#clip0_1390_13810)">
<path d="M2.24162 4.08431C3.3692 4.08431 4.28328 3.17023 4.28328 2.04264C4.28328 0.915062 3.3692 0.000976562 2.24162 0.000976562C1.11404 0.000976562 0.199951 0.915062 0.199951 2.04264C0.199951 3.17023 1.11404 4.08431 2.24162 4.08431Z" fill="white"/>
<path d="M8.07499 4.08431C9.20257 4.08431 10.1167 3.17022 10.1167 2.04264C10.1167 0.915062 9.20257 0.000976562 8.07499 0.000976562C6.94741 0.000976562 6.03333 0.915062 6.03333 2.04264C6.03333 3.17022 6.94741 4.08431 8.07499 4.08431Z" fill="white"/>
<path d="M13.9082 4.08431C15.0358 4.08431 15.9499 3.17022 15.9499 2.04264C15.9499 0.915062 15.0358 0.000976562 13.9082 0.000976562C12.7807 0.000976562 11.8666 0.915062 11.8666 2.04264C11.8666 3.17022 12.7807 4.08431 13.9082 4.08431Z" fill="white"/>
<path d="M2.24162 9.91732C3.3692 9.91732 4.28328 9.00323 4.28328 7.87565C4.28328 6.74807 3.3692 5.83398 2.24162 5.83398C1.11404 5.83398 0.199951 6.74807 0.199951 7.87565C0.199951 9.00323 1.11404 9.91732 2.24162 9.91732Z" fill="white"/>
<path d="M8.07499 9.91732C9.20257 9.91732 10.1167 9.00323 10.1167 7.87565C10.1167 6.74807 9.20257 5.83398 8.07499 5.83398C6.94741 5.83398 6.03333 6.74807 6.03333 7.87565C6.03333 9.00323 6.94741 9.91732 8.07499 9.91732Z" fill="white"/>
<path d="M13.9082 9.91732C15.0358 9.91732 15.9499 9.00323 15.9499 7.87565C15.9499 6.74807 15.0358 5.83398 13.9082 5.83398C12.7807 5.83398 11.8666 6.74807 11.8666 7.87565C11.8666 9.00323 12.7807 9.91732 13.9082 9.91732Z" fill="white"/>
<path d="M2.24162 15.7513C3.3692 15.7513 4.28328 14.8372 4.28328 13.7096C4.28328 12.5821 3.3692 11.668 2.24162 11.668C1.11404 11.668 0.199951 12.5821 0.199951 13.7096C0.199951 14.8372 1.11404 15.7513 2.24162 15.7513Z" fill="white"/>
<path d="M8.07499 15.7513C9.20257 15.7513 10.1167 14.8372 10.1167 13.7096C10.1167 12.5821 9.20257 11.668 8.07499 11.668C6.94741 11.668 6.03333 12.5821 6.03333 13.7096C6.03333 14.8372 6.94741 15.7513 8.07499 15.7513Z" fill="white"/>
<path d="M22.95 19.8333H20.0334V12.8333C20.0334 12.2145 19.7875 11.621 19.3499 11.1834C18.9124 10.7458 18.3189 10.5 17.7 10.5C17.0812 10.5 16.4877 10.7458 16.0501 11.1834C15.6125 11.621 15.3667 12.2145 15.3667 12.8333V22.6835L13.661 20.6313C13.2618 20.168 12.6966 19.8799 12.0871 19.8291C11.4776 19.7783 10.8725 19.9688 10.402 20.3597C9.93162 20.7506 9.63349 21.3106 9.57183 21.9191C9.51017 22.5276 9.68991 23.136 10.0724 23.6133L13.5432 27.7888C13.5979 27.8549 13.6666 27.9081 13.7442 27.9446C13.8218 27.9811 13.9066 28 13.9924 28H27.6167C27.7714 28 27.9198 27.9385 28.0292 27.8291C28.1386 27.7197 28.2 27.5714 28.2 27.4167V25.0833C28.2 23.6909 27.6469 22.3556 26.6623 21.371C25.6778 20.3865 24.3424 19.8333 22.95 19.8333Z" fill="white"/>
</g>
<defs>
<clipPath id="clip0_1390_13810">
<rect width="28" height="28" fill="white" transform="translate(0.199951)"/>
</clipPath>
</defs>
</svg>
