<svg width="40" height="40" viewBox="0 0 40 40" fill="none" xmlns="http://www.w3.org/2000/svg">
<g clip-path="url(#clip0_1215_14122)">
<rect opacity="0.1" width="40" height="40" rx="20" fill="#CDDAED"/>
<path d="M23.56 15.6397C23.4018 15.6397 23.2471 15.6866 23.1156 15.7745C22.984 15.8624 22.8815 15.9873 22.8209 16.1335C22.7604 16.2797 22.7445 16.4406 22.7754 16.5957C22.8063 16.7509 22.8825 16.8935 22.9944 17.0054C23.1062 17.1172 23.2488 17.1934 23.404 17.2243C23.5592 17.2552 23.72 17.2393 23.8662 17.1788C24.0124 17.1182 24.1373 17.0157 24.2252 16.8841C24.3131 16.7526 24.36 16.5979 24.36 16.4397C24.36 16.2275 24.2758 16.024 24.1257 15.874C23.9757 15.724 23.7722 15.6397 23.56 15.6397ZM26.6267 17.253C26.6137 16.6999 26.5101 16.1526 26.32 15.633C26.1505 15.1884 25.8867 14.7859 25.5467 14.453C25.2166 14.1113 24.8131 13.8491 24.3667 13.6863C23.8485 13.4904 23.3006 13.3845 22.7467 13.373C22.04 13.333 21.8134 13.333 20 13.333C18.1867 13.333 17.96 13.333 17.2534 13.373C16.6995 13.3845 16.1516 13.4904 15.6334 13.6863C15.1878 13.8508 14.7847 14.1127 14.4534 14.453C14.1117 14.7831 13.8495 15.1866 13.6867 15.633C13.4908 16.1512 13.3848 16.6991 13.3734 17.253C13.3334 17.9597 13.3334 18.1863 13.3334 19.9997C13.3334 21.813 13.3334 22.0397 13.3734 22.7463C13.3848 23.3002 13.4908 23.8481 13.6867 24.3663C13.8495 24.8127 14.1117 25.2162 14.4534 25.5463C14.7847 25.8866 15.1878 26.1486 15.6334 26.313C16.1516 26.5089 16.6995 26.6149 17.2534 26.6263C17.96 26.6663 18.1867 26.6663 20 26.6663C21.8134 26.6663 22.04 26.6663 22.7467 26.6263C23.3006 26.6149 23.8485 26.5089 24.3667 26.313C24.8131 26.1502 25.2166 25.8881 25.5467 25.5463C25.8882 25.2147 26.1523 24.8118 26.32 24.3663C26.5101 23.8467 26.6137 23.2995 26.6267 22.7463C26.6267 22.0397 26.6667 21.813 26.6667 19.9997C26.6667 18.1863 26.6667 17.9597 26.6267 17.253ZM25.4267 22.6663C25.4219 23.0895 25.3452 23.5088 25.2 23.9063C25.0936 24.1965 24.9226 24.4586 24.7 24.673C24.4838 24.8933 24.2222 25.064 23.9334 25.173C23.5358 25.3182 23.1166 25.3948 22.6934 25.3997C22.0267 25.433 21.78 25.4397 20.0267 25.4397C18.2734 25.4397 18.0267 25.4397 17.36 25.3997C16.9206 25.4079 16.4831 25.3402 16.0667 25.1997C15.7906 25.0851 15.5409 24.9149 15.3334 24.6997C15.1121 24.4855 14.9433 24.2231 14.84 23.933C14.6773 23.5298 14.587 23.101 14.5734 22.6663C14.5734 21.9997 14.5334 21.753 14.5334 19.9997C14.5334 18.2463 14.5334 17.9997 14.5734 17.333C14.5764 16.9004 14.6553 16.4716 14.8067 16.0663C14.9241 15.7849 15.1042 15.5341 15.3334 15.333C15.5359 15.1038 15.7862 14.9217 16.0667 14.7997C16.4731 14.653 16.9014 14.5764 17.3334 14.573C18 14.573 18.2467 14.533 20 14.533C21.7534 14.533 22 14.533 22.6667 14.573C23.0899 14.5779 23.5092 14.6545 23.9067 14.7997C24.2097 14.9121 24.4816 15.0949 24.7 15.333C24.9185 15.5378 25.0892 15.7882 25.2 16.0663C25.3482 16.4723 25.4249 16.9009 25.4267 17.333C25.46 17.9997 25.4667 18.2463 25.4667 19.9997C25.4667 21.753 25.46 21.9997 25.4267 22.6663ZM20 16.5797C19.3239 16.581 18.6633 16.7827 18.1018 17.1593C17.5403 17.5359 17.103 18.0705 16.8451 18.6955C16.5873 19.3205 16.5205 20.008 16.6532 20.671C16.786 21.3339 17.1122 21.9427 17.5908 22.4203C18.0693 22.898 18.6787 23.223 19.3419 23.3544C20.0052 23.4859 20.6925 23.4177 21.317 23.1587C21.9416 22.8997 22.4753 22.4613 22.8508 21.899C23.2263 21.3368 23.4267 20.6758 23.4267 19.9997C23.4276 19.5497 23.3395 19.1041 23.1675 18.6883C22.9956 18.2725 22.7431 17.8949 22.4246 17.577C22.1062 17.2592 21.728 17.0075 21.3119 16.8363C20.8958 16.6651 20.45 16.5779 20 16.5797ZM20 22.2197C19.561 22.2197 19.1318 22.0895 18.7667 21.8455C18.4016 21.6016 18.1171 21.2549 17.949 20.8492C17.781 20.4436 17.737 19.9972 17.8227 19.5666C17.9084 19.1359 18.1198 18.7404 18.4303 18.4299C18.7407 18.1194 19.1363 17.908 19.5669 17.8223C19.9976 17.7367 20.4439 17.7806 20.8496 17.9487C21.2552 18.1167 21.602 18.4012 21.8459 18.7663C22.0898 19.1314 22.22 19.5606 22.22 19.9997C22.22 20.2912 22.1626 20.5799 22.0511 20.8492C21.9395 21.1186 21.776 21.3633 21.5698 21.5695C21.3637 21.7756 21.1189 21.9391 20.8496 22.0507C20.5803 22.1623 20.2916 22.2197 20 22.2197Z" fill="#CDDAED"/>
</g>
<defs>
<clipPath id="clip0_1215_14122">
<rect width="40" height="40" fill="white"/>
</clipPath>
</defs>
</svg>
