<svg width="35" height="23" viewBox="0 0 35 23" fill="none" xmlns="http://www.w3.org/2000/svg">
<path d="M10.7942 22.4998C16.7557 22.4998 21.5884 17.6421 21.5884 11.6498C21.5884 5.65752 16.7557 0.799805 10.7942 0.799805C4.83273 0.799805 0 5.65752 0 11.6498C0 17.6421 4.83273 22.4998 10.7942 22.4998Z" fill="#EE0005"/>
<path d="M24.2053 22.4998C30.1667 22.4998 34.9995 17.6421 34.9995 11.6498C34.9995 5.65752 30.1667 0.799805 24.2053 0.799805C18.2438 0.799805 13.4111 5.65752 13.4111 11.6498C13.4111 17.6421 18.2438 22.4998 24.2053 22.4998Z" fill="#F9A000"/>
<path d="M13.4114 11.6498C13.4114 15.0949 15.0091 18.1646 17.5 20.1521C19.9909 18.1645 21.5887 15.0949 21.5887 11.6498C21.5887 8.20468 19.991 5.13493 17.5 3.14746C15.0092 5.13509 13.4114 8.20476 13.4114 11.6498Z" fill="#FF6300"/>
</svg>
