<svg width="29" height="28" viewBox="0 0 29 28" fill="none" xmlns="http://www.w3.org/2000/svg">
<g clip-path="url(#clip0_1390_13794)">
<path d="M4.67995 25.6669L2.83195 25.71C2.79311 25.7108 2.75449 25.7038 2.71837 25.6895C2.68224 25.6752 2.64932 25.6539 2.62152 25.6268C2.59372 25.5996 2.57161 25.5672 2.55646 25.5314C2.54131 25.4956 2.53343 25.4572 2.53328 25.4184V23.5202C2.53328 23.2108 2.41037 22.914 2.19158 22.6952C1.97278 22.4764 1.67604 22.3535 1.36662 22.3535C1.0572 22.3535 0.760452 22.4764 0.54166 22.6952C0.322867 22.914 0.199951 23.2108 0.199951 23.5202L0.199951 25.717C0.199951 26.3226 0.440498 26.9033 0.868675 27.3315C1.29685 27.7596 1.87758 28.0002 2.48312 28.0002H4.67995C4.98937 28.0002 5.28612 27.8773 5.50491 27.6585C5.7237 27.4397 5.84662 27.1429 5.84662 26.8335C5.84662 26.5241 5.7237 26.2274 5.50491 26.0086C5.28612 25.7898 4.98937 25.6669 4.67995 25.6669Z" fill="white"/>
<path d="M1.36662 5.64667C1.67604 5.64667 1.97278 5.52375 2.19158 5.30496C2.41037 5.08616 2.53328 4.78942 2.53328 4.48L2.48895 2.632C2.48818 2.59315 2.49514 2.55454 2.50944 2.51842C2.52373 2.48229 2.54508 2.44937 2.57222 2.42157C2.59937 2.39377 2.63177 2.37166 2.66755 2.35651C2.70333 2.34136 2.74176 2.33348 2.78062 2.33333H4.67995C4.98937 2.33333 5.28612 2.21042 5.50491 1.99162C5.7237 1.77283 5.84662 1.47609 5.84662 1.16667C5.84662 0.857247 5.7237 0.560501 5.50491 0.341709C5.28612 0.122916 4.98937 0 4.67995 0L2.48195 0C1.87673 0 1.29629 0.240424 0.868333 0.668382C0.440375 1.09634 0.199951 1.67678 0.199951 2.282L0.199951 4.48C0.199951 4.78942 0.322867 5.08616 0.54166 5.30496C0.760452 5.52375 1.0572 5.64667 1.36662 5.64667Z" fill="white"/>
<path d="M25.9168 0H23.72C23.4106 0 23.1138 0.122916 22.8951 0.341709C22.6763 0.560501 22.5533 0.857247 22.5533 1.16667C22.5533 1.47609 22.6763 1.77283 22.8951 1.99162C23.1138 2.21042 23.4106 2.33333 23.72 2.33333L25.568 2.29017C25.6069 2.28939 25.6455 2.29636 25.6816 2.31065C25.7177 2.32495 25.7506 2.34629 25.7784 2.37344C25.8062 2.40058 25.8284 2.43299 25.8435 2.46877C25.8587 2.50454 25.8665 2.54298 25.8667 2.58183V4.48C25.8667 4.78942 25.9896 5.08616 26.2084 5.30496C26.4272 5.52375 26.7239 5.64667 27.0333 5.64667C27.3428 5.64667 27.6395 5.52375 27.8583 5.30496C28.0771 5.08616 28.2 4.78942 28.2 4.48V2.28317C28.2 1.67763 27.9595 1.0969 27.5313 0.668724C27.1031 0.240547 26.5224 0 25.9168 0V0Z" fill="white"/>
<path d="M27.0333 22.3535C26.7239 22.3535 26.4272 22.4764 26.2084 22.6952C25.9896 22.914 25.8667 23.2108 25.8667 23.5202L25.911 25.3682C25.9118 25.407 25.9048 25.4456 25.8905 25.4818C25.8762 25.5179 25.8549 25.5508 25.8277 25.5786C25.8006 25.6064 25.7682 25.6285 25.7324 25.6437C25.6966 25.6588 25.6582 25.6667 25.6193 25.6669H23.72C23.4106 25.6669 23.1138 25.7898 22.8951 26.0086C22.6763 26.2274 22.5533 26.5241 22.5533 26.8335C22.5533 27.1429 22.6763 27.4397 22.8951 27.6585C23.1138 27.8773 23.4106 28.0002 23.72 28.0002H25.918C26.5232 28.0002 27.1037 27.7598 27.5316 27.3318C27.9596 26.9039 28.2 26.3234 28.2 25.7182V23.5202C28.2 23.2108 28.0771 22.914 27.8583 22.6952C27.6395 22.4764 27.3428 22.3535 27.0333 22.3535Z" fill="white"/>
<path d="M9.5332 5.25H6.61654C6.29437 5.25 6.0332 5.51117 6.0332 5.83333V8.75C6.0332 9.07217 6.29437 9.33333 6.61654 9.33333H9.5332C9.85537 9.33333 10.1165 9.07217 10.1165 8.75V5.83333C10.1165 5.51117 9.85537 5.25 9.5332 5.25Z" fill="white"/>
<path d="M21.7832 5.25H18.8665C18.5444 5.25 18.2832 5.51117 18.2832 5.83333V8.75C18.2832 9.07217 18.5444 9.33333 18.8665 9.33333H21.7832C22.1054 9.33333 22.3665 9.07217 22.3665 8.75V5.83333C22.3665 5.51117 22.1054 5.25 21.7832 5.25Z" fill="white"/>
<path d="M21.7832 18.667H18.8665C18.5444 18.667 18.2832 18.9282 18.2832 19.2503V22.167C18.2832 22.4892 18.5444 22.7503 18.8665 22.7503H21.7832C22.1054 22.7503 22.3665 22.4892 22.3665 22.167V19.2503C22.3665 18.9282 22.1054 18.667 21.7832 18.667Z" fill="white"/>
<path d="M9.5332 18.667H6.61654C6.29437 18.667 6.0332 18.9282 6.0332 19.2503V22.167C6.0332 22.4892 6.29437 22.7503 6.61654 22.7503H9.5332C9.85537 22.7503 10.1165 22.4892 10.1165 22.167V19.2503C10.1165 18.9282 9.85537 18.667 9.5332 18.667Z" fill="white"/>
<path d="M12.45 9.63783C12.682 9.63783 12.9046 9.54565 13.0687 9.38155C13.2328 9.21746 13.325 8.9949 13.325 8.76283V7.29167C13.325 7.21431 13.3557 7.14013 13.4104 7.08543C13.4651 7.03073 13.5393 7 13.6166 7H15.8706C16.1027 7 16.3252 6.90781 16.4893 6.74372C16.6534 6.57962 16.7456 6.35706 16.7456 6.125C16.7456 5.89294 16.6534 5.67038 16.4893 5.50628C16.3252 5.34219 16.1027 5.25 15.8706 5.25H12.45C12.2179 5.25 11.9953 5.34219 11.8312 5.50628C11.6671 5.67038 11.575 5.89294 11.575 6.125V8.76283C11.575 8.9949 11.6671 9.21746 11.8312 9.38155C11.9953 9.54565 12.2179 9.63783 12.45 9.63783Z" fill="white"/>
<path d="M15.95 8.31934C15.7179 8.31934 15.4953 8.41152 15.3312 8.57562C15.1671 8.73971 15.075 8.96227 15.075 9.19434V13.1003C15.075 13.3324 15.1671 13.555 15.3312 13.7191C15.4953 13.8832 15.7179 13.9753 15.95 13.9753C16.182 13.9753 16.4046 13.8832 16.5687 13.7191C16.7328 13.555 16.825 13.3324 16.825 13.1003V9.19434C16.825 8.96227 16.7328 8.73971 16.5687 8.57562C16.4046 8.41152 16.182 8.31934 15.95 8.31934Z" fill="white"/>
<path d="M12.45 16.9167C12.6821 16.9167 12.9047 16.8245 13.0687 16.6604C13.2328 16.4963 13.325 16.2738 13.325 16.0417V13.2266C13.325 12.9945 13.2328 12.7719 13.0687 12.6078C12.9047 12.4438 12.6821 12.3516 12.45 12.3516C12.218 12.3516 11.9954 12.4438 11.8313 12.6078C11.6672 12.7719 11.575 12.9945 11.575 13.2266V14.8751C11.575 14.9524 11.5443 15.0266 11.4896 15.0813C11.4349 15.136 11.3607 15.1667 11.2834 15.1667H6.6167C6.38463 15.1667 6.16207 15.2589 5.99798 15.423C5.83389 15.5871 5.7417 15.8097 5.7417 16.0417C5.7417 16.2738 5.83389 16.4963 5.99798 16.6604C6.16207 16.8245 6.38463 16.9167 6.6167 16.9167H12.45Z" fill="white"/>
<path d="M15.8706 20.9997H13.6166C13.5393 20.9997 13.4651 20.969 13.4104 20.9143C13.3557 20.8596 13.325 20.7854 13.325 20.7081V19.0596C13.325 18.8275 13.2328 18.6049 13.0687 18.4409C12.9046 18.2768 12.682 18.1846 12.45 18.1846C12.2179 18.1846 11.9953 18.2768 11.8312 18.4409C11.6671 18.6049 11.575 18.8275 11.575 19.0596V21.8747C11.575 22.1068 11.6671 22.3294 11.8312 22.4935C11.9953 22.6575 12.2179 22.7497 12.45 22.7497H15.8706C16.1027 22.7497 16.3252 22.6575 16.4893 22.4935C16.6534 22.3294 16.7456 22.1068 16.7456 21.8747C16.7456 21.6427 16.6534 21.4201 16.4893 21.256C16.3252 21.0919 16.1027 20.9997 15.8706 20.9997Z" fill="white"/>
<path d="M6.6167 12.833H8.95003C9.1821 12.833 9.40466 12.7408 9.56875 12.5767C9.73285 12.4126 9.82503 12.1901 9.82503 11.958C9.82503 11.7259 9.73285 11.5034 9.56875 11.3393C9.40466 11.1752 9.1821 11.083 8.95003 11.083H6.6167C6.38463 11.083 6.16208 11.1752 5.99798 11.3393C5.83389 11.5034 5.7417 11.7259 5.7417 11.958C5.7417 12.1901 5.83389 12.4126 5.99798 12.5767C6.16208 12.7408 6.38463 12.833 6.6167 12.833Z" fill="white"/>
<path d="M18.8667 12.833H21.7834C22.0154 12.833 22.238 12.7408 22.4021 12.5767C22.5662 12.4126 22.6584 12.1901 22.6584 11.958C22.6584 11.7259 22.5662 11.5034 22.4021 11.3393C22.238 11.1752 22.0154 11.083 21.7834 11.083H18.8667C18.6346 11.083 18.4121 11.1752 18.248 11.3393C18.0839 11.5034 17.9917 11.7259 17.9917 11.958C17.9917 12.1901 18.0839 12.4126 18.248 12.5767C18.4121 12.7408 18.6346 12.833 18.8667 12.833Z" fill="white"/>
<path d="M21.7834 15.167H15.3667C15.1346 15.167 14.9121 15.2592 14.748 15.4233C14.5839 15.5874 14.4917 15.8099 14.4917 16.042C14.4917 16.2741 14.5839 16.4966 14.748 16.6607C14.9121 16.8248 15.1346 16.917 15.3667 16.917H21.7834C22.0154 16.917 22.238 16.8248 22.4021 16.6607C22.5662 16.4966 22.6584 16.2741 22.6584 16.042C22.6584 15.8099 22.5662 15.5874 22.4021 15.4233C22.238 15.2592 22.0154 15.167 21.7834 15.167Z" fill="white"/>
</g>
<defs>
<clipPath id="clip0_1390_13794">
<rect width="28" height="28" fill="white" transform="translate(0.199951)"/>
</clipPath>
</defs>
</svg>
