<svg width="81" height="74" viewBox="0 0 81 74" fill="none" xmlns="http://www.w3.org/2000/svg">
<path d="M67.7707 73.9999H13.1717C11.2963 73.9996 9.44247 73.5968 7.73435 72.8186C6.02623 72.0405 4.50314 70.9048 3.26694 69.4875C2.03074 68.0702 1.10991 66.404 0.566064 64.6004C0.0222143 62.7967 -0.132141 60.8972 0.11333 59.0288L6.42171 11.4846C6.84456 8.3055 8.40154 5.3888 10.8033 3.27648C13.2051 1.16416 16.2884 -0.000114377 19.4801 8.42762e-09H61.536C64.7322 0.0038028 67.8181 1.17517 70.2186 3.29585C72.6191 5.41654 74.1705 8.34188 74.5838 11.5268L80.8921 59.071C81.1318 60.9415 80.971 62.8419 80.4205 64.6448C79.87 66.4478 78.9425 68.1118 77.7001 69.5253C76.4577 70.9388 74.9291 72.0693 73.2166 72.841C71.5042 73.6127 69.6475 74.0078 67.7707 73.9999Z" fill="#6AE5B4"/>
<path d="M22 37.4405V52.8809H37.4405V37.4405H27.1468C27.1468 31.7647 31.7647 27.1468 37.4405 27.1468V22C28.9261 22 22 28.9261 22 37.4405Z" fill="#2C4F7A"/>
<path d="M58.0275 27.1468V22C49.5131 22 42.587 28.9261 42.587 37.4405V52.8809H58.0275V37.4405H47.7338C47.7338 31.7647 52.3517 27.1468 58.0275 27.1468V27.1468Z" fill="#2C4F7A"/>
</svg>
