<svg width="42" height="40" viewBox="0 0 42 40" fill="none" xmlns="http://www.w3.org/2000/svg">
<rect opacity="0.1" width="40" height="40" rx="20" fill="#CDDAED"/>
<path d="M26.6666 15.8668C26.1655 16.0842 25.6356 16.2279 25.0933 16.2935C25.6654 15.9517 26.0942 15.414 26.3 14.7801C25.7623 15.1002 25.1738 15.3257 24.56 15.4468C24.1497 15.0019 23.6033 14.7057 23.0065 14.6047C22.4097 14.5037 21.7963 14.6037 21.2625 14.8889C20.7287 15.1742 20.3046 15.6285 20.0568 16.1807C19.809 16.7329 19.7515 17.3517 19.8933 17.9401C18.8063 17.8852 17.7429 17.6021 16.7724 17.1094C15.8019 16.6167 14.9459 15.9253 14.26 15.0801C14.0194 15.5003 13.893 15.976 13.8933 16.4601C13.8925 16.9097 14.0028 17.3526 14.2145 17.7492C14.4262 18.1458 14.7327 18.4839 15.1066 18.7335C14.672 18.7216 14.2466 18.605 13.8666 18.3935V18.4268C13.8699 19.0567 14.0906 19.6662 14.4915 20.1521C14.8924 20.638 15.4488 20.9706 16.0666 21.0935C15.8288 21.1659 15.5819 21.204 15.3333 21.2068C15.1612 21.2048 14.9896 21.1892 14.82 21.1601C14.9959 21.702 15.3364 22.1756 15.794 22.5149C16.2517 22.8543 16.8037 23.0425 17.3733 23.0535C16.4114 23.8103 15.2239 24.2234 14 24.2268C13.7771 24.2275 13.5545 24.2142 13.3333 24.1868C14.5829 24.9936 16.0392 25.422 17.5266 25.4201C18.5531 25.4308 19.5714 25.2368 20.5221 24.8495C21.4727 24.4622 22.3367 23.8894 23.0634 23.1645C23.7902 22.4395 24.3653 21.5771 24.755 20.6274C25.1447 19.6778 25.3413 18.66 25.3333 17.6335C25.3333 17.5201 25.3333 17.4001 25.3333 17.2801C25.8564 16.89 26.3076 16.4118 26.6666 15.8668Z" fill="#CDDAED"/>
</svg>
