<svg width="61" height="19" viewBox="0 0 61 19" fill="none" xmlns="http://www.w3.org/2000/svg">
<path d="M22.0725 17.6414L25.1302 1.14941H29.9078L26.9457 17.6414H22.0725Z" fill="#FDFDFF"/>
<path d="M22.0725 17.6414L25.9902 1.14941H29.9078L26.9457 17.6414H22.0725Z" fill="#FDFDFF"/>
<path d="M44.2401 1.33258C43.2846 0.966095 41.7558 0.599609 39.8447 0.599609C35.0671 0.599609 31.6272 2.89014 31.6272 6.18851C31.6272 8.66229 34.016 9.94499 35.9271 10.7696C37.8381 11.5942 38.4114 12.1439 38.4114 12.8769C38.4114 13.9763 36.8826 14.5261 35.5449 14.5261C33.6338 14.5261 32.5827 14.2512 30.9583 13.6098L30.2895 13.335L29.6206 17.0915C30.7672 17.5496 32.8694 18.0077 35.0671 18.0077C40.1314 18.0077 43.4757 15.7171 43.4757 12.2355C43.4757 10.3115 42.2335 8.84553 39.367 7.65445C37.647 6.82986 36.5959 6.37175 36.5959 5.54716C36.5959 4.81419 37.4559 4.08122 39.367 4.08122C40.9914 4.08122 42.138 4.35608 42.998 4.72257L43.4757 4.90581L44.2401 1.33258Z" fill="#FDFDFF"/>
<path d="M44.2401 1.33258C43.2846 0.966095 41.7558 0.599609 39.8447 0.599609C35.0671 0.599609 32.4872 2.89014 32.4872 6.18851C32.4872 8.66229 34.016 9.94499 35.9271 10.7696C37.8381 11.5942 38.4114 12.1439 38.4114 12.8769C38.4114 13.9763 36.8826 14.5261 35.5449 14.5261C33.6338 14.5261 32.5827 14.2512 30.9583 13.6098L30.2895 13.335L29.6206 17.0915C30.7672 17.5496 32.8694 18.0077 35.0671 18.0077C40.1314 18.0077 43.4757 15.7171 43.4757 12.2355C43.4757 10.3115 42.2335 8.84553 39.367 7.65445C37.647 6.82986 36.5959 6.37175 36.5959 5.54716C36.5959 4.81419 37.4559 4.08122 39.367 4.08122C40.9914 4.08122 42.138 4.35608 42.998 4.72257L43.4757 4.90581L44.2401 1.33258Z" fill="#FDFDFF"/>
<path fill-rule="evenodd" clip-rule="evenodd" d="M49.9753 2.3405C50.4531 1.24104 51.313 1.14941 52.4597 1.14941H56.1862L60.1994 17.6414H55.6129L55.0396 14.8927H48.9242L47.9687 17.6414H42.8089L49.9753 2.3405ZM52.1704 7.28849C52.1704 7.28849 50.546 11.3198 50.2594 12.1444V12.236H54.2726C54.0815 11.3198 53.1259 7.19687 53.1259 7.19687L52.8393 5.63931C52.5526 6.28066 52.1704 7.28849 52.1704 7.28849Z" fill="#FDFDFF"/>
<path fill-rule="evenodd" clip-rule="evenodd" d="M51.1219 2.3405C51.5997 1.24104 52.4597 1.14941 53.6063 1.14941H56.1862L60.1994 17.6414H55.6129L55.0396 14.8927H48.9242L47.9687 17.6414H42.8089L51.1219 2.3405ZM52.1704 7.28849C52.1704 7.28849 50.6416 11.2282 50.2594 12.1444V12.236H54.2726C54.0815 11.3198 53.1259 7.19687 53.1259 7.19687L52.8393 5.63931C52.5526 6.28066 52.1704 7.28849 52.1704 7.28849Z" fill="#FDFDFF"/>
<path d="M13.2813 12.6939L12.8035 10.3117C11.9436 7.56308 9.17255 4.53958 6.11487 3.07364L10.4147 17.7331H15.5746L23.3143 1.24121H18.1545L13.2813 12.6939Z" fill="#FDFDFF"/>
<path d="M13.2813 12.6939L12.8035 10.3117C11.9436 7.56308 9.17255 4.53958 6.11487 3.07364L10.4147 17.7331H15.5746L23.3143 1.24121H19.11L13.2813 12.6939Z" fill="#FDFDFF"/>
<path d="M-0.000549316 1.14941L0.859423 1.33266C6.97478 2.70698 11.1791 6.18859 12.8035 10.3115L11.0835 2.52373C10.7969 1.42428 9.93691 1.14941 8.88583 1.14941H-0.000549316V1.14941Z" fill="#FDFDFF"/>
<path d="M-0.000549316 1.14941C6.11481 2.52373 11.1791 6.09697 12.8035 10.2199L11.1791 3.71481C10.8924 2.61536 9.93691 1.97401 8.88583 1.97401L-0.000549316 1.14941Z" fill="#FDFDFF"/>
<path d="M-0.000549316 1.14941C6.11481 2.52373 11.1791 6.09697 12.8035 10.2199L11.6569 6.64669C11.3702 5.54724 10.988 4.44778 9.65025 3.98968L-0.000549316 1.14941Z" fill="#FDFDFF"/>
<path d="M18.0593 12.1436L14.8105 9.02845L13.2816 12.5101L12.8994 10.2195C12.0395 7.47089 9.26843 4.44739 6.21075 2.98145L10.5106 17.6409H15.6705L18.0593 12.1436Z" fill="#FDFDFF"/>
<path d="M26.9456 17.6407L22.8369 13.6094L22.0724 17.6407H26.9456Z" fill="#FDFDFF"/>
<path d="M37.9343 11.96C38.3165 12.3264 38.5076 12.6013 38.412 12.9678C38.412 14.0673 36.8832 14.617 35.5455 14.617C33.6344 14.617 32.5833 14.3421 30.959 13.7008L30.2901 13.4259L29.6212 17.1824C30.7678 17.6405 32.87 18.0986 35.0677 18.0986C38.1254 18.0986 40.6098 17.274 42.043 15.8081L37.9343 11.96Z" fill="#FDFDFF"/>
<path d="M43.4756 17.6401H47.9666L48.9221 14.8915H55.0375L55.6108 17.6401H60.1973L58.5729 10.9517L52.8398 5.6377L53.1264 7.10364C53.1264 7.10364 54.082 11.2266 54.2731 12.1428H50.2599C50.6421 11.2266 52.1709 7.28688 52.1709 7.28688C52.1709 7.28688 52.5531 6.27904 52.8398 5.6377" fill="#FDFDFF"/>
</svg>
